<?xml version="1.0" encoding="utf-8"?>
<svg version="1.1" id="Layer_1" xmlns="http://www.w3.org/2000/svg" xmlns:xlink="http://www.w3.org/1999/xlink" x="0px" y="0px"
	 viewBox="0 0 250 175" style="enable-background:new 0 0 250 175;" xml:space="preserve">
<style type="text/css">
	.st0{fill:#FFFFFF;}
	.st1{fill:#F45050;}
</style>
<g>
	<g>
		<path class="st0" d="M107.71,49.62c-8.58,0.66-15.55,2.79-27.97,8.44c-0.87,0.38-4.6,2.2-8.27,4.01
			c-6.49,3.24-8.47,4.01-11.89,4.74l-1.29,0.28l0.03,1.12c0.07,0.59,0.03,1.12-0.03,1.15c-0.03,0.07-0.7,0.49-1.46,0.98
			c-2.06,1.29-4.85,3.56-5.93,4.71c-1.12,1.22-1.64,2.79-1.64,4.88c0,1.74,1.01,7.71,1.36,8.06c0.14,0.14,0.21-1.22,0.21-4.32
			c0-5.51,0.17-6.14,2.02-7.99c1.43-1.43,3.66-3.14,5.61-4.32l1.29-0.8l3.56-0.1l3.49-0.1c-1.29-0.21-5.58-0.35-6.07-1.15
			c-0.42-0.56-0.38-0.59,0.38-0.91c2.96-1.19,5.68-1.43,8.61-3c2.37-1.29,11.75-5.89,14.09-6.91c8.16-3.63,14.37-5.61,19.81-6.38
			c5.58-0.8,8.06-0.87,18.34-0.73c9.8,0.1,19.67,0.35,29.3,2.3c1.08,0.21,0.87,0.63-0.24,0.45c-5.41-0.8-28.77-1.15-34.07-0.49
			c-1.53,0.21-3,0.45-3.21,0.49c-0.24,0.1,0.24,0.59,1.64,1.74c2.34,1.88,8.13,7.67,10.32,10.32l1.6,1.85h4.53
			c2.51,0,5.06,0.07,5.68,0.21s1.74,0.31,2.48,0.45c4.36,0.77,11.23,2.27,12.24,2.65c0.17,0.07,0.35,0.03,0.35-0.1
			c0-0.35-7.18-2.37-7.25-2.37c-3.8-1.01-3.84-0.94,0.21-1.15c4.15-0.14,26.44-0.59,31.91-0.59c2.58,0,3.49-0.03,3.42-0.24
			c-0.03-0.14-2.02-1.43-4.39-2.86c-9.9-6-19.04-11.58-30.69-12.97c-1.19-0.14-2.51-0.28-2.96-0.35
			C136.2,49.69,114.27,49.06,107.71,49.62z"/>
		<path class="st0" d="M101.05,54.32c-6.52,1.05-14.96,4.57-22.53,9.38l-1.43,0.91l0.14,1.05c0.1,0.56,0.24,1.64,0.35,2.37
			c0.28,2.37-1.01,2.16,15.42,2.16c12.17,0,14.37,0.07,15.21,0.35c0.98,0.35,2.93,0.28,2.93-0.1c0-0.1-0.63-0.24-1.36-0.28
			c-1.08-0.07-1.53-0.21-2.2-0.8c-5.34-4.22,7.67-6.07,8.96-1.88c0.24,0.87,1.01,1.71,2.93,3.31c0.66,0.52,0.73,0.56,0.66,0.21
			c-0.07-0.38,0.14-0.45,2.16-0.52c1.4-0.03,2.2-0.14,2.2-0.31c0-0.87-7.88-9.03-11.96-12.38
			C108.89,54.85,105.89,53.52,101.05,54.32z"/>
		<path class="st0" d="M200.76,69.29c0.14,0.1,0.84,0.31,1.57,0.45c1.99,0.38,2.72,0.52,6.91,1.6c1.92,0.49,6.91,2.41,8.37,3.21
			c0.38,0.24,1.08,0.63,1.57,0.91c2.86,1.6,6.1,5.09,6.45,6.91c0.14,0.7,0.14,0.73-0.91,0.84c-2.13,0.28-20.65,0.66-25.01,0.49
			c-4.71-0.14-5.48-0.03-5.75,0.8c-0.17,0.52,0.31,1.29,3.07,4.85c0.84,1.12,1.5,2.13,1.43,2.23c-0.07,0.1-1.01,0.14-2.09,0.07
			s-3.63-0.21-5.68-0.35c-5.37-0.31-10.39-0.77-15.8-1.4c-1.19-0.14-2.2-0.17-2.41-0.07c-0.17,0.14,0.03,0.24,0.73,0.35
			c0.56,0.1,1.64,0.28,2.37,0.42c4.36,0.77,10.36,1.5,19.04,2.3c3.94,0.38,20.26,0.38,23.47,0c1.33-0.14,3.77-0.45,5.44-0.66
			c1.67-0.21,3.17-0.38,3.38-0.38c0.17,0,0.45,0.49,0.63,1.15c0.38,1.29,0.56,1.46,1.6,1.46c0.7,0,0.73-0.07,0.73-0.8
			c0-7.08-0.49-13.78-6.59-17.96c-2.44-1.67-6.84-3.49-10.99-4.6C208.15,70.02,200.16,68.76,200.76,69.29z"/>
		<path class="st0" d="M136.97,76.47c-3.07,0.59-6.98,3.52-8.44,6.35c-0.91,1.71-0.8,2.13,0.21,0.84c8.58-11.2,19.63-1.26,23.19,8.2
			c0.98,2.62,1.19,1.81,0.31-1.26c-1.43-5.23-3.63-9.35-6.24-11.61C143.53,76.82,140.21,75.88,136.97,76.47z"/>
		<path class="st0" d="M58.01,79.57c-1.36,0.7-2.06,1.33-3,2.79c-0.98,1.46-1.08,2.34-0.14,1.15c0.87-1.15,2.79-2.37,4.19-2.65
			c5.02-1.01,8.02,6.49,8.09,6.45C67.71,87,64.04,76.68,58.01,79.57z"/>
		<path class="st0" d="M160.65,80.69c0.77,1.33,3.49,4.25,4.74,5.16c3.03,2.09,3.91,2.3,14.72,3.38c5.68,0.59,16.22,1.22,16.22,1.05
			c0-0.07-0.8-1.22-1.81-2.55c-2.06-2.76-2.23-3.31-1.12-4.25c0.56-0.45,0.63-0.59,0.28-0.59c-0.66,0-12.31-0.63-15.94-0.91
			c-5.02-0.31-8.16-0.59-12.56-1.12C160.44,80.31,160.44,80.31,160.65,80.69z"/>
	</g>
	<g>
		<path class="st0" d="M46.82,26.39c-20.82,8.72-30.83,31.42-26.92,52.24c0.03,0.17,0.07,0.31,0.1,0.49
			c0.98,4.85,2.69,9.56,5.2,13.99c0.14,0.24,0.73,0.35,2.51,0.38c1.29,0.03,2.44,0,2.55-0.1c0.07-0.07-0.03-0.56-0.28-1.05
			c-11.65-23.65-5.68-52.07,19.04-64.48c8.72-4.36,17.93-6.07,27.55-6.98C66.21,20.88,56.37,22.1,46.82,26.39z"/>
		<path class="st0" d="M48.04,124.11c-0.24,0.35,5.06,5.06,9.83,8.79c3.59,2.79,11.44,8.23,11.89,8.23c0.07,0,0.66,0.35,1.29,0.8
			c1.5,0.94,2.41,1.46,5.06,2.89c2.09,1.15,9.77,4.92,9.97,4.92c0.03,0,0.63,0.28,1.29,0.56c3.73,1.71,10.29,4.08,14.89,5.41
			c1.88,0.56,2.23,0.63,3.77,1.05c1.29,0.38,6.77,1.57,8.27,1.85c0.8,0.14,1.99,0.35,2.58,0.45c1.29,0.24,1.71,0.28,6.03,0.77
			c5.16,0.52,11.44,0.87,11.13,0.56c-0.14-0.14-5.37-0.56-6.42-0.66c-27.59-2.86-53.67-15.8-73.76-34.7l-1.19-1.08h-2.27
			C49.15,123.94,48.11,124.01,48.04,124.11z"/>
	</g>
	<g>
		<path class="st0" d="M62.32,97.35c-1.53,0.45-2.82,0.8-2.86,0.84c-0.1,0.1-11.4,23.05-11.4,23.16c0,0.07,1.33,0.07,2.96,0.07
			l3-0.07l2.09-4.53c1.15-2.51,3.03-6.56,4.19-9.03c1.15-2.48,2.16-4.39,2.27-4.29c0.17,0.21,4.53,9.45,4.53,9.66
			c0,0.07-1.5,0.14-3.35,0.14H60.4l-0.98,2.34c-0.52,1.26-0.94,2.37-0.94,2.48s2.48,0.17,5.55,0.17h5.58l0.7,1.6l0.73,1.53
			l3.03,0.03c1.6,0,2.96-0.03,2.96-0.1c0-0.1-11.44-23.99-11.68-24.45C65.21,96.65,64.59,96.76,62.32,97.35z"/>
		<path class="st0" d="M193.77,97.21v7.64c0,4.57-0.1,7.99-0.21,8.47c-0.35,1.22-1.19,2.09-2.55,2.72c-1.08,0.49-1.5,0.52-4.64,0.52
			c-3.35,0-3.42,0-4.74-0.66c-1.01-0.56-1.46-0.94-1.92-1.71l-0.56-1.01l-0.07-8.23c-0.07-7.5-0.1-8.2-0.45-8.2
			c-0.21,0-1.05,0.21-1.85,0.45c-0.84,0.21-1.92,0.52-2.44,0.66l-0.98,0.24v7.22c0,3.98,0.1,7.78,0.24,8.44
			c1.01,5.44,6,8.4,13.71,8.06c1.64-0.07,3.56-0.28,4.29-0.49c2.89-0.84,5.44-2.58,6.63-4.57c1.12-1.92,1.22-2.76,1.22-11.47v-8.09
			h-2.86H193.77z"/>
		<path class="st0" d="M30.69,102.79c0.35-0.17,2.69-0.28,7.85-0.38l7.32-0.1l0.77-2.37c0.38-1.33,0.73-2.44,0.73-2.58
			c0-0.07-3.8-0.14-8.44-0.14c-6.52,0-8.72,0.1-9.63,0.35c-1.78,0.49-2.96,1.15-4.22,2.44c-2.27,2.27-3.31,5.16-3.31,9.1
			c0,4.08,1.12,7.11,3.52,9.52c1.43,1.5,2.86,2.27,4.67,2.62c0.63,0.1,4.5,0.21,8.58,0.21h7.39l0.63-2.23
			c0.35-1.19,0.7-2.37,0.77-2.58c0.1-0.38-0.38-0.38-7.95-0.38h-8.02l-1.01-0.66c-2.44-1.53-3.35-6-1.95-9.7
			C28.84,104.6,29.85,103.31,30.69,102.79z"/>
		<path class="st0" d="M101.66,116.36c-1.05-1.4-1.92-2.62-2.02-2.76c-0.07-0.17,0.31-0.52,1.05-0.94c3.35-1.88,4.78-5.72,3.56-9.59
			c-0.77-2.48-2.86-4.67-5.16-5.48c-0.59-0.17-3.45-0.28-9.28-0.31c-4.64-0.07-8.44-0.07-8.44,0c0,0.03-0.31,1.08-0.7,2.34
			c-0.35,1.22-0.66,2.37-0.66,2.51c0,0.21,1.85,0.28,8.44,0.28c7.29,0,8.54,0.07,8.96,0.38c1.6,1.08,1.53,4.36-0.1,5.44
			c-0.56,0.38-1.26,0.42-6.14,0.49l-5.51,0.07v-2.16c0-1.6-0.07-2.16-0.24-2.16c-0.17,0-1.5,0.35-2.93,0.73l-2.58,0.73l-0.07,7.74
			l-0.07,7.78h2.96h2.93v-3.84v-3.87h3.84h3.84l2.65,3.87l2.65,3.84h3.38h3.38l-0.98-1.33
			C103.93,119.43,102.64,117.72,101.66,116.36z"/>
		<path class="st0" d="M127.68,102.79c0.35-0.17,2.69-0.28,7.85-0.38l7.36-0.1l0.73-2.37c0.42-1.33,0.73-2.44,0.73-2.58
			c0-0.07-3.8-0.14-8.4-0.14c-6.52,0-8.72,0.1-9.63,0.35c-1.81,0.49-3,1.15-4.25,2.44c-2.27,2.27-3.31,5.16-3.31,9.1
			c0,4.08,1.12,7.11,3.52,9.52c1.43,1.5,2.86,2.27,4.67,2.62c0.66,0.1,4.5,0.21,8.58,0.21h7.39l0.66-2.23
			c0.31-1.19,0.66-2.37,0.73-2.58c0.1-0.38-0.38-0.38-7.92-0.38h-8.02l-1.05-0.66c-2.44-1.53-3.35-6-1.95-9.7
			C125.86,104.6,126.84,103.31,127.68,102.79z"/>
		<path class="st0" d="M153.66,116.25v-9.52v-9.52h-2.96h-2.93v12.1v12.14l10.71-0.03l10.67-0.07l0.77-2.51
			c0.42-1.36,0.73-2.51,0.73-2.55c0-0.03-3.84-0.03-8.47-0.03H153.66z"/>
		<path class="st0" d="M229.37,112.35c-0.49-1.01-1.71-2.34-2.62-2.86c-0.38-0.21-0.35-0.28,0.42-0.94
			c2.13-1.88,2.69-4.53,1.43-7.08c-1.01-2.06-2.93-3.45-5.55-4.01c-0.63-0.14-2.82-0.21-6.21-0.24c-0.94,0-1.99,0-3.1,0h-8.09
			l-0.66,2.2c-0.35,1.22-0.7,2.41-0.73,2.62c-0.1,0.38,0.42,0.38,8.75,0.38h3.84h5.06l0.66,0.66c0.7,0.73,0.8,1.46,0.38,2.41
			c-0.49,1.08-0.94,1.22-6.1,1.26c-0.38,0-0.77,0-1.22,0h-5.79v-1.15c0-1.12,0-1.19-0.49-1.05c-0.28,0.07-1.57,0.42-2.82,0.77
			l-2.34,0.59v7.78v7.78h9.03c1.29,0,2.51,0,3.63,0c3.63-0.03,6.1-0.14,6.73-0.24c2.69-0.49,5.06-2.2,5.93-4.25
			C230.04,115.66,230,113.6,229.37,112.35z M223.69,114.89c-0.52,1.22-0.91,1.33-6.84,1.36c-0.28,0-0.56,0-0.87,0h-6.14v-2.16v-2.16
			h6.21c0.28,0,0.56,0,0.8,0c4.92,0,5.44,0.07,6.07,0.45C223.76,112.87,224.11,113.92,223.69,114.89z"/>
	</g>
	<g>
		<path class="st1" d="M75.97,25.66c-0.03,0.07-1.43,0.21-3.03,0.35c-4.85,0.42-6.8,0.73-6.66,1.15c0.1,0.24,3.07,3.52,5.51,6.03
			l1.81,1.88l2.2-0.42c7.43-1.53,17.75-1.4,27.83,0.42c2.55,0.45,2.86,0.52,3.14,0.77c0.17,0.1,0.84,1.26,1.53,2.55
			c0.7,1.29,1.33,2.37,1.43,2.37c0.21,0,0.14-1.53-0.21-4.78c-0.1-1.19-0.28-2.93-0.35-3.91c-0.03-0.98-0.17-1.88-0.24-2.06
			c-0.07-0.24-2.89-1.08-5.89-1.74c-0.56-0.14-1.43-0.31-1.92-0.45c-2.86-0.66-8.75-1.5-14.58-2.02
			C84.06,25.55,76.15,25.48,75.97,25.66z"/>
		<path class="st1" d="M61.81,27.82c-8.65,2.2-16.32,6.31-21.8,11.75c-3,2.86-4.46,4.74-6.14,7.6c-1.5,2.51-1.95,3.56-1.71,3.8
			c0.42,0.38,12.1,6.1,12.31,5.96c0.1-0.03,0.45-0.7,0.8-1.4c1.26-2.76,4.19-6.87,6.31-8.96c3.98-3.98,9.77-7.6,15.28-9.56l1.6-0.56
			l3.14,1.88c3.73,2.23,4.67,2.72,4.57,2.41c-0.24-0.63-12.17-13.39-12.52-13.36C63.52,27.4,62.72,27.61,61.81,27.82z"/>
		<path class="st1" d="M110.99,32.63c0.1,1.15,0.24,2.55,0.35,3.14c0.14,1.12-0.59,0.77,5.79,2.82c0.94,0.28,1.81,0.59,2.48,0.8
			c0.66,0.24,1.08,0.38,1.15,0.42c0.14,0.1,0.63,0.28,1.12,0.45c2.62,0.91,8.61,3.63,13.71,6.28c0.49,0.24,1.64,0.49,3,0.56
			c1.22,0.14,3.21,0.38,4.43,0.56c3.63,0.56,4.36,0.63,4.36,0.42c0-0.28-6.63-4.46-10.18-6.49c-3.77-2.13-10.95-5.58-15.69-7.5
			c-3.45-1.43-9.63-3.56-10.29-3.56C110.88,30.54,110.85,30.78,110.99,32.63z"/>
		<path class="st1" d="M30.95,53.38c-0.94,2.44-1.46,4.5-2.09,8.09c-0.35,1.99-0.31,10.32,0.07,12.83
			c0.98,6.28,2.62,11.65,5.3,17.47l0.8,1.78h5.75c3.91,0,5.75-0.07,5.75-0.24c0-0.14-0.21-0.73-0.45-1.29
			c-1.43-3.52-2.13-5.82-3.17-10.04c-0.24-0.91-0.56-2.69-0.91-4.78c-0.31-1.92-0.31-9,0-10.74c0.38-2.13,0.66-3.56,0.94-4.46
			l0.28-0.87l1.12,0.14c0.66,0.07,1.67,0.21,2.3,0.35c2.48,0.42,3.35,0.49,3.17,0.21c-0.1-0.14-2.2-1.26-4.71-2.48
			c-2.51-1.22-6.59-3.21-9-4.43c-2.44-1.19-4.53-2.16-4.67-2.16C31.3,52.75,31.09,53.03,30.95,53.38z"/>
		<path class="st1" d="M59.23,124.15c0,0.31,1.01,1.19,5.34,4.67c6.52,5.2,18.9,13.15,19.67,12.59c2.44-1.74,4.43-3.38,4.43-3.56
			c0-0.14-0.42-0.49-0.94-0.8c-1.57-0.84-5.86-3.59-7.39-4.71c-2.13-1.53-5.13-3.8-5.75-4.29c-0.28-0.24-1.5-1.29-2.72-2.3
			l-2.2-1.81h-5.2C61.18,123.94,59.23,124.01,59.23,124.15z"/>
		<path class="st1" d="M93.65,136.39c-0.8,0.63-2.82,2.16-4.5,3.45c-1.67,1.29-3.07,2.48-3.14,2.62
			c-0.17,0.59,11.54,5.82,17.51,7.81c0.73,0.24,1.57,0.52,1.81,0.63c0.84,0.38,8.34,2.48,10.92,3.07c2.41,0.56,2.55,0.49,3.17-1.36
			c0.73-2.2,0.73-2.27-0.66-2.58c-3.31-0.84-8.89-2.55-11.51-3.56c-2.41-0.91-2.65-1.01-6.91-2.86c-2.51-1.05-6.8-3.17-7.43-3.63
			c-0.35-0.28-0.31-0.45,0.98-2.34c0.73-1.08,1.33-2.09,1.33-2.2C95.15,135.34,94.49,135.76,93.65,136.39z"/>
		<path class="st1" d="M176.48,139.42c-3.91,4.01-8.41,7.04-13.39,9.03l-0.98,0.38l-1.74-1.57c-2.82-2.51-2.82-2.51,0.28,4.15
			c0.63,1.43,0.87,1.74,1.19,1.64c0.21-0.1,1.01-0.38,1.74-0.63c3.8-1.26,9.38-4.43,13.04-7.36c2.86-2.3,7.25-7.08,7.25-7.92
			c0-0.24-0.52-0.31-2.44-0.31l-2.44,0.03L176.48,139.42z"/>
		<path class="st1" d="M123.68,145.49c-0.45,0.52-3.1,9.07-2.89,9.24c0.31,0.31,6.31,1.22,10.74,1.6c3.31,0.28,10.92,0.28,14.26,0
			c4.08-0.35,6.63-0.77,10.95-1.85c1.5-0.35,2.72-0.66,2.79-0.66c0.24,0,0-0.7-0.7-2.02c-0.42-0.87-0.87-1.46-1.05-1.43
			c-0.17,0.03-0.91,0.17-1.57,0.35c-4.32,1.19-10.95,1.99-16.29,1.99c-4.5,0-13.15-0.84-15.48-1.5c-0.35-0.1-0.42-0.49-0.45-3.07
			C123.96,145.87,123.86,145.21,123.68,145.49z"/>
	</g>
	<g>
		<path class="st0" d="M93.78,125.76l-2.94,6.72h2.3l0.45-1.17h2.56l0.45,1.17h2.34l-2.94-6.72H93.78z M94.23,129.67l0.65-1.69
			l0.65,1.69H94.23z"/>
		<polygon class="st0" points="109.74,129.63 108.57,125.76 106.48,125.76 105.24,129.58 104.07,125.76 101.74,125.76 
			103.89,132.48 106.32,132.48 107.46,128.88 108.55,132.48 110.98,132.48 113.13,125.76 110.98,125.76 		"/>
		<path class="st0" d="M119.77,126.6c-0.34-0.32-0.74-0.56-1.2-0.73c-0.46-0.17-0.97-0.26-1.52-0.26c-0.54,0-1.05,0.09-1.51,0.26
			c-0.46,0.17-0.87,0.42-1.2,0.73c-0.34,0.32-0.6,0.69-0.79,1.11c-0.19,0.43-0.28,0.89-0.28,1.41c0,0.51,0.09,0.97,0.28,1.4
			c0.19,0.43,0.45,0.8,0.79,1.12c0.34,0.32,0.74,0.56,1.2,0.73c0.46,0.17,0.97,0.26,1.52,0.26c0.54,0,1.05-0.09,1.51-0.26
			c0.46-0.17,0.86-0.42,1.2-0.73c0.34-0.32,0.6-0.69,0.79-1.12c0.19-0.43,0.28-0.9,0.28-1.4c0-0.51-0.09-0.98-0.28-1.41
			C120.37,127.29,120.11,126.91,119.77,126.6z M118.45,129.82c-0.08,0.21-0.18,0.38-0.32,0.53c-0.14,0.14-0.3,0.25-0.48,0.33
			c-0.18,0.08-0.38,0.12-0.59,0.12c-0.21,0-0.41-0.04-0.59-0.12c-0.18-0.08-0.34-0.19-0.48-0.33c-0.14-0.14-0.24-0.32-0.32-0.53
			c-0.08-0.21-0.12-0.44-0.12-0.71c0-0.26,0.04-0.5,0.12-0.71c0.08-0.21,0.18-0.38,0.32-0.53c0.14-0.14,0.3-0.25,0.48-0.33
			c0.18-0.08,0.38-0.12,0.59-0.12c0.21,0,0.41,0.04,0.59,0.12c0.18,0.08,0.34,0.19,0.48,0.33c0.14,0.14,0.24,0.32,0.32,0.53
			c0.08,0.21,0.12,0.44,0.12,0.71C118.56,129.38,118.52,129.61,118.45,129.82z"/>
		<path class="st0" d="M127.59,129.63c0.25-0.37,0.37-0.82,0.37-1.34c0-0.52-0.12-0.97-0.37-1.35c-0.25-0.38-0.6-0.67-1.06-0.88
			c-0.46-0.2-1-0.31-1.63-0.31h-3.24v6.72h2.27v-1.69h0.62l1.14,1.69h2.42l-1.42-2.08C127.07,130.2,127.38,129.96,127.59,129.63z
			 M125.46,127.72c0.15,0.14,0.23,0.33,0.23,0.58c0,0.24-0.08,0.44-0.23,0.58c-0.15,0.14-0.38,0.21-0.7,0.21h-0.83v-1.57h0.83
			C125.08,127.5,125.31,127.57,125.46,127.72z"/>
		<polygon class="st0" points="135.73,125.76 133.26,125.76 131.05,128.19 131.05,125.76 128.82,125.76 128.82,132.48 
			131.05,132.48 131.05,130.81 131.55,130.25 133.24,132.48 135.86,132.48 133.04,128.72 		"/>
		<path class="st0" d="M145.29,126.6c-0.34-0.32-0.74-0.56-1.2-0.73c-0.46-0.17-0.97-0.26-1.52-0.26c-0.54,0-1.05,0.09-1.51,0.26
			c-0.46,0.17-0.86,0.42-1.2,0.73c-0.34,0.32-0.6,0.69-0.79,1.11c-0.19,0.43-0.28,0.89-0.28,1.41c0,0.51,0.09,0.97,0.28,1.4
			c0.19,0.43,0.45,0.8,0.79,1.12c0.34,0.32,0.74,0.56,1.2,0.73c0.46,0.17,0.97,0.26,1.52,0.26c0.54,0,1.05-0.09,1.51-0.26
			c0.46-0.17,0.86-0.42,1.2-0.73c0.34-0.32,0.6-0.69,0.79-1.12c0.19-0.43,0.28-0.9,0.28-1.4c0-0.51-0.1-0.98-0.28-1.41
			C145.89,127.29,145.63,126.91,145.29,126.6z M143.96,129.82c-0.08,0.21-0.18,0.38-0.32,0.53c-0.14,0.14-0.3,0.25-0.48,0.33
			c-0.18,0.08-0.38,0.12-0.59,0.12c-0.21,0-0.41-0.04-0.59-0.12c-0.18-0.08-0.34-0.19-0.48-0.33c-0.14-0.14-0.24-0.32-0.32-0.53
			c-0.08-0.21-0.12-0.44-0.12-0.71c0-0.26,0.04-0.5,0.12-0.71c0.08-0.21,0.18-0.38,0.32-0.53c0.14-0.14,0.3-0.25,0.48-0.33
			c0.18-0.08,0.38-0.12,0.59-0.12c0.21,0,0.41,0.04,0.59,0.12c0.18,0.08,0.34,0.19,0.48,0.33c0.14,0.14,0.25,0.32,0.32,0.53
			c0.08,0.21,0.12,0.44,0.12,0.71C144.08,129.38,144.04,129.61,143.96,129.82z"/>
		<polygon class="st0" points="147.19,132.48 149.45,132.48 149.45,130.33 152.26,130.33 152.26,128.62 149.45,128.62 
			149.45,127.47 152.65,127.47 152.65,125.76 147.19,125.76 		"/>
		<path class="st0" d="M161.68,129.48c-0.13-0.24-0.31-0.43-0.53-0.58c-0.22-0.15-0.46-0.27-0.72-0.36
			c-0.26-0.09-0.53-0.16-0.79-0.21c-0.27-0.05-0.51-0.1-0.73-0.14c-0.22-0.04-0.4-0.1-0.53-0.17c-0.13-0.07-0.2-0.16-0.2-0.27
			c0-0.08,0.03-0.15,0.08-0.21c0.05-0.06,0.15-0.12,0.27-0.15c0.13-0.04,0.3-0.06,0.52-0.06c0.29,0,0.6,0.04,0.91,0.12
			c0.31,0.08,0.63,0.21,0.97,0.37l0.68-1.64c-0.35-0.2-0.75-0.35-1.19-0.44c-0.44-0.1-0.89-0.14-1.34-0.14
			c-0.69,0-1.27,0.1-1.73,0.31c-0.46,0.21-0.81,0.48-1.05,0.82c-0.23,0.34-0.35,0.72-0.35,1.14c0,0.36,0.07,0.66,0.2,0.9
			s0.31,0.43,0.53,0.58c0.22,0.15,0.46,0.27,0.73,0.36c0.27,0.09,0.53,0.16,0.79,0.22c0.26,0.05,0.5,0.11,0.72,0.15
			c0.22,0.05,0.4,0.11,0.53,0.18c0.13,0.07,0.2,0.17,0.2,0.29c0,0.08-0.03,0.14-0.09,0.2c-0.06,0.05-0.15,0.1-0.27,0.12
			c-0.12,0.03-0.3,0.04-0.51,0.04c-0.37,0-0.75-0.06-1.15-0.17c-0.39-0.11-0.75-0.26-1.07-0.45l-0.73,1.65
			c0.34,0.21,0.77,0.37,1.3,0.5c0.52,0.13,1.07,0.19,1.63,0.19c0.7,0,1.28-0.1,1.74-0.31c0.46-0.21,0.81-0.48,1.04-0.83
			c0.23-0.34,0.35-0.72,0.35-1.13C161.89,130.01,161.82,129.72,161.68,129.48z"/>
		<path class="st0" d="M164.76,125.76l-2.94,6.72h2.3l0.45-1.17h2.56l0.45,1.17h2.34l-2.94-6.72H164.76z M165.21,129.67l0.65-1.69
			l0.65,1.69H165.21z"/>
		<polygon class="st0" points="169.45,127.51 171.42,127.51 171.42,132.48 173.68,132.48 173.68,127.51 175.65,127.51 
			175.65,125.76 169.45,125.76 		"/>
		<rect x="176.24" y="125.76" class="st0" width="2.27" height="6.72"/>
		<path class="st0" d="M184.5,128.91c-0.22-0.15-0.46-0.27-0.72-0.36c-0.26-0.09-0.53-0.16-0.79-0.21c-0.27-0.05-0.51-0.1-0.73-0.14
			c-0.22-0.04-0.4-0.1-0.53-0.17c-0.13-0.07-0.2-0.16-0.2-0.27c0-0.08,0.03-0.15,0.08-0.21c0.05-0.06,0.15-0.12,0.27-0.15
			c0.13-0.04,0.3-0.06,0.52-0.06c0.29,0,0.6,0.04,0.91,0.12c0.31,0.08,0.63,0.21,0.97,0.37l0.68-1.64c-0.35-0.2-0.75-0.35-1.19-0.44
			c-0.44-0.1-0.89-0.14-1.34-0.14c-0.69,0-1.27,0.1-1.73,0.31c-0.46,0.21-0.81,0.48-1.05,0.82c-0.23,0.34-0.35,0.72-0.35,1.14
			c0,0.36,0.07,0.66,0.2,0.9s0.31,0.43,0.53,0.58c0.22,0.15,0.46,0.27,0.73,0.36c0.27,0.09,0.53,0.16,0.79,0.22
			c0.26,0.05,0.5,0.11,0.72,0.15c0.22,0.05,0.4,0.11,0.53,0.18c0.13,0.07,0.2,0.17,0.2,0.29c0,0.08-0.03,0.14-0.09,0.2
			c-0.06,0.05-0.15,0.1-0.27,0.12c-0.12,0.03-0.3,0.04-0.51,0.04c-0.37,0-0.75-0.06-1.15-0.17c-0.39-0.11-0.75-0.26-1.07-0.45
			l-0.73,1.65c0.34,0.21,0.77,0.37,1.3,0.5c0.52,0.13,1.07,0.19,1.63,0.19c0.7,0,1.28-0.1,1.74-0.31c0.46-0.21,0.81-0.48,1.04-0.83
			c0.23-0.34,0.35-0.72,0.35-1.13c0-0.35-0.07-0.65-0.2-0.88C184.9,129.25,184.72,129.05,184.5,128.91z"/>
		<polygon class="st0" points="188.17,127.47 191.37,127.47 191.37,125.76 185.9,125.76 185.9,132.48 188.17,132.48 188.17,130.33 
			190.97,130.33 190.97,128.62 188.17,128.62 		"/>
		<path class="st0" d="M194.05,125.76l-2.94,6.72h2.3l0.45-1.17h2.56l0.45,1.17h2.34l-2.94-6.72H194.05z M194.5,129.67l0.65-1.69
			l0.65,1.69H194.5z"/>
		<path class="st0" d="M201.94,127.89c0.14-0.15,0.3-0.26,0.49-0.34c0.19-0.08,0.41-0.12,0.64-0.12c0.3,0,0.57,0.07,0.81,0.21
			c0.24,0.14,0.46,0.33,0.66,0.58l1.43-1.28c-0.33-0.43-0.75-0.77-1.26-1c-0.51-0.23-1.09-0.35-1.75-0.35
			c-0.54,0-1.04,0.09-1.49,0.25c-0.46,0.17-0.85,0.41-1.19,0.72c-0.34,0.31-0.6,0.69-0.78,1.11c-0.19,0.43-0.28,0.9-0.28,1.42
			c0,0.52,0.09,0.99,0.28,1.42s0.45,0.8,0.78,1.11s0.73,0.56,1.19,0.73c0.46,0.17,0.96,0.25,1.49,0.25c0.66,0,1.24-0.12,1.75-0.35
			c0.51-0.23,0.93-0.57,1.26-0.99l-1.43-1.28c-0.2,0.25-0.42,0.44-0.66,0.58c-0.24,0.14-0.51,0.21-0.81,0.21
			c-0.24,0-0.45-0.04-0.64-0.12c-0.19-0.08-0.36-0.19-0.49-0.34c-0.14-0.15-0.24-0.32-0.32-0.53c-0.08-0.21-0.12-0.44-0.12-0.7
			c0-0.26,0.04-0.49,0.12-0.7C201.7,128.21,201.8,128.04,201.94,127.89z"/>
		<polygon class="st0" points="206.07,127.51 208.04,127.51 208.04,132.48 210.31,132.48 210.31,127.51 212.28,127.51 
			212.28,125.76 206.07,125.76 		"/>
		<rect x="212.86" y="125.76" class="st0" width="2.27" height="6.72"/>
		<path class="st0" d="M222.46,126.6c-0.34-0.32-0.74-0.56-1.2-0.73c-0.46-0.17-0.97-0.26-1.52-0.26c-0.54,0-1.05,0.09-1.51,0.26
			c-0.46,0.17-0.86,0.42-1.2,0.73c-0.34,0.32-0.6,0.69-0.79,1.11c-0.19,0.43-0.28,0.89-0.28,1.41c0,0.51,0.09,0.97,0.28,1.4
			c0.19,0.43,0.45,0.8,0.79,1.12c0.34,0.32,0.74,0.56,1.2,0.73c0.46,0.17,0.97,0.26,1.52,0.26c0.54,0,1.05-0.09,1.51-0.26
			c0.46-0.17,0.86-0.42,1.2-0.73c0.34-0.32,0.6-0.69,0.79-1.12s0.28-0.9,0.28-1.4c0-0.51-0.1-0.98-0.28-1.41
			C223.06,127.29,222.8,126.91,222.46,126.6z M221.14,129.82c-0.08,0.21-0.18,0.38-0.32,0.53c-0.14,0.14-0.3,0.25-0.48,0.33
			c-0.18,0.08-0.38,0.12-0.59,0.12s-0.41-0.04-0.59-0.12c-0.18-0.08-0.34-0.19-0.48-0.33c-0.14-0.14-0.24-0.32-0.32-0.53
			c-0.08-0.21-0.12-0.44-0.12-0.71c0-0.26,0.04-0.5,0.12-0.71c0.08-0.21,0.18-0.38,0.32-0.53c0.14-0.14,0.3-0.25,0.48-0.33
			c0.18-0.08,0.38-0.12,0.59-0.12s0.41,0.04,0.59,0.12c0.18,0.08,0.34,0.19,0.48,0.33c0.14,0.14,0.25,0.32,0.32,0.53
			c0.08,0.21,0.12,0.44,0.12,0.71C221.25,129.38,221.21,129.61,221.14,129.82z"/>
		<polygon class="st0" points="228.78,125.76 228.78,128.81 226.22,125.76 224.36,125.76 224.36,132.48 226.57,132.48 
			226.57,129.42 229.12,132.48 230.99,132.48 230.99,125.76 		"/>
	</g>
</g>
</svg>
