<?xml version="1.0" standalone="no"?>
<!DOCTYPE svg PUBLIC "-//W3C//DTD SVG 20010904//EN"
 "http://www.w3.org/TR/2001/REC-SVG-20010904/DTD/svg10.dtd">
<svg version="1.0" xmlns="http://www.w3.org/2000/svg"
 width="1000.000000pt" height="1000.000000pt" viewBox="0 0 1000.000000 1000.000000"
 preserveAspectRatio="xMidYMid meet">
<metadata>
Created by potrace 1.14, written by Peter Selinger 2001-2017
</metadata>
<g transform="translate(0.000000,1000.000000) scale(0.100000,-0.100000)"
fill="#000000" stroke="none">
<path d="M2907 7665 c-1 -2 -56 -6 -122 -10 -133 -8 -143 -9 -200 -18 -22 -3
-60 -9 -85 -12 -25 -3 -56 -7 -70 -10 -14 -3 -38 -8 -55 -10 -16 -3 -38 -8
-47 -11 -9 -3 -26 -7 -37 -9 -48 -11 -58 -13 -101 -26 -25 -7 -49 -13 -55 -15
-60 -14 -302 -113 -395 -162 -64 -33 -190 -111 -200 -122 -3 -4 -26 -20 -51
-38 -63 -43 -234 -207 -289 -277 -25 -32 -53 -66 -62 -76 -10 -11 -18 -23 -18
-29 0 -5 -4 -10 -9 -10 -5 0 -11 -8 -15 -17 -3 -10 -26 -49 -51 -88 -102 -161
-219 -452 -241 -605 -2 -14 -6 -36 -8 -50 -37 -173 -42 -462 -10 -652 12 -77
17 -99 35 -172 24 -95 63 -213 91 -276 44 -99 90 -186 104 -196 17 -14 194
-19 194 -6 0 5 -22 61 -49 124 -41 96 -96 244 -105 283 -2 6 -8 30 -15 55 -7
25 -15 54 -17 65 -2 11 -6 31 -9 45 -5 27 -20 108 -32 180 -10 59 -9 434 1
485 5 22 10 56 11 75 2 19 4 35 5 35 1 0 3 11 6 25 2 14 11 52 20 85 8 33 17
67 19 75 23 105 124 325 218 475 61 98 183 236 317 359 36 33 164 125 240 173
111 69 372 187 460 208 8 2 62 18 120 35 119 34 257 63 420 86 30 5 60 9 65
10 6 1 25 2 44 3 19 0 31 4 27 8 -6 6 -43 12 -49 8z"/>
<path d="M2970 7659 c0 -5 5 -7 10 -4 6 3 10 8 10 11 0 2 -4 4 -10 4 -5 0 -10
-5 -10 -11z"/>
<path d="M3037 7474 c-2 -2 -28 -6 -58 -8 -176 -15 -310 -33 -321 -44 -4 -4 3
-19 15 -34 47 -55 160 -177 213 -232 l56 -57 102 16 c55 10 110 19 121 21 121
23 572 22 716 -1 13 -2 47 -6 74 -9 28 -3 61 -8 75 -10 14 -3 41 -7 60 -10 19
-3 45 -8 56 -10 12 -2 38 -7 59 -10 58 -9 71 -21 115 -100 22 -41 49 -85 60
-98 l20 -23 -5 35 c-4 37 -12 128 -22 250 -3 41 -7 86 -8 100 -2 14 -3 31 -4
38 -1 11 -30 27 -71 38 -8 2 -40 11 -70 19 -30 8 -64 17 -75 19 -11 3 -59 14
-106 25 -47 11 -94 20 -105 20 -18 -1 -35 2 -109 18 -16 3 -43 7 -60 8 -16 2
-55 6 -85 10 -64 8 -95 11 -170 20 -66 7 -467 15 -473 9z"/>
<path d="M2390 7364 c-63 -20 -142 -47 -175 -60 -33 -14 -64 -26 -70 -27 -27
-6 -228 -115 -295 -159 -64 -43 -154 -110 -170 -128 -3 -3 -32 -30 -65 -60
-127 -117 -228 -247 -304 -394 -23 -45 -28 -63 -19 -73 6 -7 99 -56 207 -109
269 -131 274 -133 280 -129 3 2 15 21 25 42 124 244 288 426 520 577 74 49
266 148 266 139 0 -5 4 -3 8 2 4 6 37 20 74 33 l66 23 79 -46 c43 -25 85 -50
93 -55 39 -25 121 -70 125 -70 13 0 1 19 -36 60 -115 126 -235 255 -333 357
-85 88 -115 113 -135 113 -14 -1 -78 -17 -141 -36z"/>
<path d="M4443 7268 c-10 -14 -10 -17 2 -123 4 -38 9 -78 10 -88 2 -23 17 -33
85 -53 30 -9 64 -20 75 -24 11 -5 52 -18 90 -30 92 -29 277 -100 290 -111 5
-5 15 -9 22 -9 8 0 102 -43 211 -96 223 -109 228 -110 320 -119 69 -7 108 -12
152 -20 14 -2 48 -7 75 -10 28 -3 65 -8 83 -11 45 -9 40 7 -15 42 -25 16 -52
34 -58 39 -15 14 -42 30 -92 56 -24 13 -43 26 -43 31 0 4 -5 8 -10 8 -6 0 -34
15 -63 33 -78 50 -333 187 -357 192 -3 1 -45 21 -95 44 -49 23 -103 48 -120
56 -16 7 -52 22 -79 34 -85 39 -451 171 -471 171 -1 0 -7 -6 -12 -12z"/>
<path d="M4395 6522 c-1 -2 -38 -5 -81 -8 -44 -2 -94 -6 -111 -9 -18 -3 -50
-7 -70 -10 -21 -3 -49 -8 -63 -11 -14 -2 -38 -7 -55 -10 -97 -16 -369 -100
-470 -145 -11 -4 -42 -17 -70 -28 -27 -11 -67 -27 -87 -35 -21 -9 -41 -17 -45
-18 -5 0 -42 -18 -85 -39 -42 -22 -78 -39 -81 -39 -3 0 -93 -43 -201 -95 -108
-53 -199 -95 -202 -95 -4 1 -10 -2 -13 -8 -17 -25 -288 -127 -391 -147 -32 -6
-41 -15 -39 -38 4 -53 -2 -66 -38 -88 -33 -19 -101 -68 -167 -119 -11 -8 -43
-39 -72 -68 -89 -88 -101 -174 -59 -407 11 -60 27 -126 31 -122 2 2 6 87 8
188 3 125 8 194 18 214 19 43 59 89 124 142 90 74 102 83 112 83 6 0 12 4 14
8 6 15 97 62 120 62 82 -2 209 2 206 6 -3 2 -27 6 -54 9 -100 10 -153 29 -154
56 0 8 92 42 190 69 90 26 78 20 415 185 326 161 363 177 535 244 74 29 144
57 155 61 28 12 147 50 171 54 10 3 51 12 89 21 39 10 79 19 90 20 32 5 98 16
125 21 91 15 205 19 595 18 406 -1 596 -5 750 -19 136 -11 187 -17 207 -20 11
-3 44 -7 72 -9 28 -3 76 -10 106 -16 30 -6 69 -13 87 -16 17 -2 42 -8 55 -13
21 -9 21 -10 3 -12 -11 -1 -24 0 -30 1 -32 7 -265 20 -435 26 -197 6 -768 5
-845 -1 -95 -8 -196 -23 -203 -30 -3 -3 7 -17 23 -31 146 -125 355 -333 459
-455 l55 -65 154 -1 c150 -1 293 -9 307 -18 4 -2 25 -7 46 -10 21 -2 50 -7 64
-10 74 -15 137 -27 155 -30 11 -2 52 -11 90 -20 39 -9 77 -18 85 -20 8 -1 35
-8 59 -15 42 -11 72 -7 35 6 -80 26 -95 30 -109 34 -5 1 -21 7 -35 12 -14 5
-32 11 -40 13 -78 18 -190 51 -190 56 0 7 -6 6 155 13 202 9 619 17 1323 25
72 1 72 1 -209 171 -97 59 -182 110 -190 114 -8 4 -23 12 -34 19 -97 58 -398
206 -430 211 -5 1 -14 4 -20 7 -18 11 -198 68 -250 80 -83 18 -89 19 -125 25
-19 3 -46 7 -60 9 -14 3 -45 7 -70 10 -25 3 -61 7 -80 10 -170 24 -653 46
-1083 49 -131 0 -240 0 -242 -2z"/>
<path d="M1231 6348 c-15 -37 -52 -169 -52 -190 0 -4 -5 -22 -10 -40 -15 -52
-23 -161 -22 -318 1 -181 8 -279 26 -365 4 -16 9 -46 12 -65 3 -19 10 -48 15
-65 5 -16 19 -66 31 -110 12 -44 26 -84 31 -90 4 -5 8 -15 8 -23 0 -39 125
-322 142 -323 32 -2 358 -1 401 2 39 2 47 6 43 18 -3 9 -32 95 -65 191 -33 96
-62 189 -64 205 -3 17 -8 37 -11 45 -3 8 -8 33 -11 54 -3 21 -7 48 -10 60 -3
12 -8 35 -11 51 -4 17 -8 118 -9 226 -2 163 1 212 17 285 10 49 21 104 25 122
5 28 9 32 37 32 17 0 67 -7 111 -15 105 -19 131 -19 113 -2 -19 19 -704 357
-724 357 -2 0 -13 -19 -23 -42z"/>
<path d="M4025 6323 c-39 -7 -83 -16 -99 -18 -16 -3 -36 -10 -45 -14 -9 -5
-20 -10 -26 -10 -20 -3 -91 -22 -110 -30 -11 -5 -63 -26 -115 -47 -129 -51
-363 -170 -470 -239 -79 -51 -78 -49 -68 -113 4 -31 11 -73 13 -92 3 -19 9
-38 13 -42 20 -20 133 -25 597 -27 275 -1 523 -5 550 -7 156 -15 175 -15 175
-5 0 6 -8 11 -17 12 -80 3 -133 30 -160 83 -17 33 -7 62 29 85 37 23 120 38
188 34 99 -5 159 -37 185 -98 18 -45 115 -137 135 -129 16 6 70 14 133 18 21
2 40 5 43 8 18 19 -376 423 -506 520 -78 58 -174 107 -219 113 -14 2 -26 4
-26 5 0 9 -145 3 -200 -7z"/>
<path d="M8040 5729 c0 -5 17 -11 38 -15 20 -3 82 -17 137 -31 55 -13 113 -27
129 -29 39 -7 175 -56 276 -98 163 -69 304 -178 371 -286 39 -63 43 -92 14
-96 -11 -2 -90 -6 -175 -9 -85 -2 -155 -5 -155 -6 0 -1 -200 -3 -444 -5 -481
-4 -481 -4 -468 -56 4 -13 44 -75 91 -138 47 -63 83 -117 81 -120 -5 -7 -84
-6 -245 5 -58 3 -134 8 -170 10 -72 4 -183 13 -245 20 -22 2 -62 6 -90 9 -27
3 -72 8 -100 12 -27 3 -73 7 -102 9 -28 1 -56 6 -61 9 -6 3 -13 2 -16 -3 -7
-10 20 -21 63 -26 14 -2 67 -10 116 -18 120 -21 149 -25 220 -32 33 -3 71 -8
85 -10 14 -3 52 -8 85 -11 33 -3 76 -7 95 -9 19 -2 60 -6 90 -9 30 -3 87 -8
125 -12 94 -9 803 -12 902 -3 83 7 187 19 215 24 14 3 143 17 158 17 22 1 30
-7 41 -39 6 -21 15 -43 20 -48 10 -14 61 -18 69 -5 11 18 1 259 -14 330 -36
171 -76 253 -170 345 -39 39 -84 77 -101 85 -16 8 -41 22 -55 31 -14 9 -28 17
-32 18 -5 1 -32 12 -62 25 -92 41 -241 89 -351 112 -37 8 -120 24 -145 29 -14
2 -43 7 -65 10 -94 16 -155 21 -155 14z"/>
<path d="M5454 5435 c-113 -35 -233 -124 -295 -220 -32 -49 -44 -85 -30 -85 6
0 11 4 11 9 0 22 134 143 190 171 33 17 62 30 65 30 3 0 6 0 8 1 33 10 114 13
155 5 51 -10 139 -45 152 -61 7 -8 17 -15 23 -15 18 0 111 -82 163 -144 56
-67 127 -172 132 -196 2 -8 10 -22 18 -31 8 -8 14 -20 14 -26 0 -13 39 -103
45 -103 6 0 0 60 -8 80 -3 8 -19 60 -37 115 -75 233 -203 403 -340 450 -3 1
-12 4 -20 7 -63 25 -186 31 -246 13z"/>
<path d="M2354 5331 c-48 -14 -113 -66 -148 -118 -48 -74 -45 -84 10 -34 50
47 135 91 174 91 40 0 90 -18 133 -47 36 -25 127 -131 127 -150 0 -4 10 -19
21 -33 l20 -25 -6 25 c-25 97 -125 239 -194 274 -35 18 -104 27 -137 17z"/>
<path d="M6433 5283 c-18 -6 24 -61 116 -154 75 -75 169 -132 234 -143 15 -3
35 -7 45 -10 9 -2 37 -7 62 -10 25 -3 68 -8 95 -12 59 -7 83 -9 190 -19 44 -4
91 -9 105 -11 14 -2 63 -7 110 -9 47 -3 103 -8 126 -10 22 -3 101 -8 174 -11
74 -3 138 -7 141 -10 17 -10 17 16 0 37 -58 75 -121 176 -121 195 0 11 9 29
20 39 26 23 25 31 -2 31 -13 1 -84 4 -158 8 -74 4 -166 9 -205 11 -38 2 -104
6 -145 9 -41 3 -113 8 -160 11 -47 3 -111 7 -142 10 -32 3 -86 7 -120 10 -35
3 -79 8 -99 11 -20 2 -54 6 -75 8 -21 3 -68 7 -104 11 -35 4 -67 8 -70 9 -3 2
-11 1 -17 -1z"/>
<path d="M2540 4619 c-144 -39 -167 -49 -180 -76 -7 -16 -14 -30 -14 -33 -1
-6 -224 -460 -236 -480 -5 -8 -24 -46 -42 -85 -18 -38 -58 -121 -89 -182 -45
-90 -53 -113 -40 -115 9 0 62 -2 118 -2 l103 -1 14 30 c8 16 28 59 44 95 16
36 53 114 81 174 28 59 51 110 51 112 0 2 32 69 70 149 65 132 90 173 90 146
0 -6 26 -63 58 -128 54 -111 112 -239 112 -249 0 -2 -55 -4 -123 -4 -83 0
-128 -4 -139 -12 -13 -11 -78 -163 -78 -183 0 -3 99 -5 221 -5 l220 0 30 -64
30 -64 117 2 c85 1 116 4 115 13 -3 16 -170 368 -377 796 -91 189 -87 184
-156 166z"/>
<path d="M7025 4601 l-90 -27 1 -300 c1 -327 8 -377 61 -458 80 -122 239 -190
448 -189 161 1 253 21 352 79 47 27 123 97 123 113 0 6 4 11 9 11 4 0 16 26
27 58 16 50 18 96 18 391 l1 334 -108 0 c-59 0 -109 -2 -112 -4 -2 -3 -5 -144
-6 -315 -2 -322 -4 -344 -45 -390 -24 -27 -80 -56 -119 -61 -49 -8 -207 -7
-257 1 -34 5 -63 19 -99 47 -28 23 -48 43 -45 46 3 4 1 13 -6 20 -8 10 -13
104 -15 311 -3 257 -5 313 -12 355 -2 11 -29 7 -126 -22z"/>
<path d="M5953 4612 l-43 -3 0 -483 0 -484 425 2 c233 1 428 5 432 9 4 4 8 13
9 20 1 7 11 43 23 81 11 37 21 74 21 82 0 12 -55 14 -334 14 -258 0 -335 3
-338 13 -2 6 -3 177 -3 379 l1 367 -75 3 c-42 2 -95 2 -118 0z"/>
<path d="M8365 4612 c-71 -1 -133 -6 -138 -11 -12 -12 -58 -184 -51 -190 3 -3
162 -6 354 -7 l349 -1 21 -24 c27 -32 33 -59 21 -92 -18 -47 -54 -54 -303 -56
l-228 -2 4 30 c5 48 -12 63 -54 51 -39 -12 -44 -14 -117 -32 l-53 -13 -1 -110
c-2 -202 1 -508 4 -511 3 -3 137 -5 187 -3 8 1 62 0 120 0 259 -4 474 7 520
25 61 24 89 42 127 80 48 49 65 89 66 158 1 76 -20 122 -85 185 l-48 47 35 33
c50 47 68 87 71 156 5 116 -75 222 -197 262 -53 17 -91 21 -262 22 -110 1
-203 3 -206 4 -3 1 -64 1 -136 -1z m520 -596 c54 -10 77 -51 62 -108 -13 -49
-32 -53 -303 -56 l-251 -4 1 79 c1 43 4 83 8 88 7 11 427 11 483 1z"/>
<path d="M1156 4593 c-127 -38 -229 -153 -267 -303 -16 -62 -19 -235 -6 -300
28 -133 122 -258 237 -312 l65 -32 324 0 c278 -1 325 1 332 14 9 18 49 161 49
176 0 8 -90 12 -317 13 -300 2 -319 3 -350 22 -76 47 -114 137 -109 257 4 90
8 110 36 166 36 75 66 95 151 102 41 3 80 6 87 5 6 -1 18 -1 25 -1 16 -1 387
8 408 9 11 1 24 28 42 89 15 49 27 94 27 100 0 19 -670 14 -734 -5z"/>
<path d="M3226 4514 c-15 -53 -24 -99 -21 -102 3 -3 139 -7 303 -8 163 -2 317
-5 341 -8 62 -6 84 -32 88 -103 5 -71 -19 -118 -67 -130 -17 -4 -123 -8 -237
-8 l-207 0 -1 77 c0 42 -4 80 -8 84 -3 4 -35 -1 -69 -11 -35 -10 -67 -18 -73
-19 -5 -1 -26 -7 -45 -14 l-35 -12 -2 -309 -2 -309 118 0 117 0 0 152 0 151
154 2 155 3 65 -97 c36 -53 84 -122 107 -154 l42 -58 130 1 c72 0 131 2 131 5
0 4 -42 65 -51 73 -3 3 -34 46 -70 95 -35 50 -72 99 -81 109 -27 29 -22 43 23
72 60 38 98 80 126 140 58 126 27 279 -78 384 -82 82 -95 85 -486 88 l-340 4
-27 -98z"/>
<path d="M5057 4599 c-53 -12 -111 -44 -158 -86 -42 -38 -96 -110 -101 -134
-2 -8 -6 -16 -9 -19 -15 -12 -36 -142 -37 -228 -1 -104 23 -209 64 -279 54
-93 162 -184 235 -197 13 -3 24 -5 24 -6 0 -1 142 -4 317 -6 323 -5 327 -5
335 31 1 6 11 43 23 84 18 60 19 75 9 82 -8 4 -151 8 -318 9 -343 1 -338 0
-397 77 -83 109 -64 342 37 439 25 24 35 27 126 30 54 2 113 5 131 8 17 2 32
-1 32 -6 0 -5 6 -6 13 -1 6 4 84 8 172 8 l160 1 27 85 c14 46 27 92 27 101 1
17 -22 18 -336 17 -186 -1 -355 -6 -376 -10z"/>
<path d="M1965 3540 l-50 -5 55 -55 c47 -47 88 -84 196 -177 12 -10 36 -29 54
-43 18 -14 38 -30 44 -36 56 -54 409 -300 562 -392 198 -119 495 -270 701
-357 59 -25 117 -50 128 -54 156 -69 693 -230 820 -246 17 -2 41 -7 55 -10
100 -24 235 -44 425 -61 28 -2 68 -6 90 -8 22 -3 101 -7 175 -10 147 -5 121 8
-36 18 -49 4 -100 8 -114 10 -14 3 -47 7 -75 11 -69 8 -225 33 -255 40 -14 3
-43 8 -65 11 -22 4 -116 26 -210 50 -93 24 -181 46 -194 49 -92 22 -473 162
-631 233 -36 16 -69 30 -75 32 -5 1 -22 11 -37 22 -16 11 -28 17 -28 14 0 -6
-140 65 -275 139 -94 51 -351 211 -396 247 -20 15 -42 28 -48 28 -6 0 -11 5
-11 10 0 6 -4 10 -10 10 -5 0 -18 6 -27 14 -10 8 -67 51 -128 97 -60 45 -112
85 -115 88 -3 3 -21 18 -40 32 -19 15 -47 38 -62 52 -15 14 -36 31 -46 39 -16
11 -99 85 -226 203 -12 11 -72 13 -151 5z"/>
<path d="M2486 3543 c-1 -1 -28 -3 -59 -4 -31 -1 -57 -5 -57 -9 0 -4 13 -18
29 -32 35 -32 267 -216 305 -243 16 -11 40 -29 55 -41 35 -28 393 -263 456
-299 28 -16 72 -40 98 -52 l48 -24 62 45 c34 25 77 58 96 74 l33 30 -45 31
c-25 17 -50 31 -56 31 -6 0 -11 5 -11 10 0 6 -5 10 -11 10 -13 0 -253 159
-257 171 -2 5 -10 9 -18 9 -8 0 -14 4 -14 8 0 4 -13 15 -29 25 -17 10 -40 26
-53 37 -13 10 -79 65 -147 121 l-124 102 -149 1 c-82 1 -151 0 -152 -1z"/>
<path d="M4645 3471 c-31 -8 -96 -40 -82 -41 5 0 -1 -13 -12 -29 -39 -55 -19
-142 42 -180 93 -57 215 -14 235 83 22 108 -72 193 -183 167z m70 -79 c47 -34
26 -114 -31 -120 -36 -4 -53 13 -59 58 -6 50 52 90 90 62z"/>
<path d="M5675 3473 c-95 -20 -147 -105 -114 -185 16 -40 27 -52 70 -75 100
-55 237 27 222 132 -2 17 -5 36 -5 43 -2 18 -75 82 -96 83 -9 0 -26 2 -37 3
-11 2 -29 1 -40 -1z m71 -94 c22 -24 21 -65 -1 -89 -38 -42 -96 -14 -98 46 -2
64 56 90 99 43z"/>
<path d="M6305 3467 c-40 -14 -64 -45 -65 -84 0 -42 20 -60 91 -80 45 -12 56
-19 48 -29 -11 -13 -75 -10 -94 6 -15 13 -32 -1 -40 -32 -6 -24 -3 -29 21 -39
64 -25 158 -14 191 23 21 23 21 81 0 102 -8 9 -39 22 -68 30 -29 7 -55 18 -57
24 -5 16 30 23 68 12 19 -6 35 -10 36 -10 1 0 7 14 14 31 14 34 5 47 -35 50
-65 5 -84 4 -110 -4z"/>
<path d="M7231 3464 c-42 -17 -64 -56 -56 -94 8 -36 33 -54 98 -71 26 -6 47
-15 47 -20 0 -16 -38 -19 -81 -6 l-46 14 -11 -30 c-13 -35 -8 -47 18 -47 10 0
21 -4 24 -8 9 -14 115 -5 142 12 24 17 44 53 44 82 0 26 -47 63 -88 70 -52 8
-72 21 -53 33 13 9 44 7 82 -5 18 -5 34 11 41 43 5 17 0 23 -21 28 -44 12
-110 12 -140 -1z"/>
<path d="M8065 3467 c-115 -38 -130 -199 -22 -250 46 -22 74 -26 120 -15 66
15 84 46 45 78 -21 17 -25 17 -49 3 -55 -33 -114 15 -93 75 13 37 57 52 94 30
27 -15 29 -15 51 8 18 20 21 29 13 42 -6 9 -15 17 -20 17 -5 0 -15 4 -22 9
-20 12 -84 14 -117 3z"/>
<path d="M8736 3465 c-45 -16 -63 -31 -82 -67 -70 -135 101 -262 231 -171 33
24 42 37 49 75 5 25 6 58 2 74 -8 30 -65 90 -87 92 -8 1 -28 3 -45 5 -17 3
-48 -1 -68 -8z m98 -87 c33 -46 7 -108 -44 -108 -32 0 -60 31 -60 65 0 34 28
65 60 65 18 0 34 -8 44 -22z"/>
<path d="M3741 3447 c-5 -12 -18 -43 -29 -67 -69 -155 -72 -163 -61 -176 7 -9
17 -11 27 -5 8 5 23 6 33 4 13 -4 20 2 24 18 5 21 12 24 60 26 46 2 55 -1 60
-18 8 -25 37 -37 75 -31 l28 4 -40 90 c-83 193 -73 178 -123 178 -38 0 -47 -4
-54 -23z m79 -127 c0 -4 -11 -6 -24 -6 -15 0 -22 5 -20 13 15 49 15 49 29 23
8 -14 14 -27 15 -30z"/>
<path d="M4073 3457 c3 -7 17 -51 31 -98 15 -46 29 -91 33 -99 8 -20 10 -27
12 -44 1 -10 15 -13 52 -12 l51 1 23 62 c12 34 20 66 16 69 -3 4 -1 4 5 1 6
-3 17 -31 24 -62 7 -30 18 -59 24 -64 10 -8 54 -15 83 -12 10 1 93 236 93 263
0 4 -17 8 -38 8 -43 0 -47 -6 -73 -92 -7 -27 -16 -48 -19 -48 -4 0 -15 30 -26
68 l-19 67 -42 3 c-48 3 -49 1 -74 -90 -7 -26 -16 -44 -20 -40 -4 4 -16 34
-27 67 l-19 60 -48 3 c-37 3 -46 0 -42 -11z"/>
<path d="M4868 3463 c-2 -4 -4 -64 -3 -133 l0 -125 45 0 c42 0 45 2 46 28 2
44 14 45 49 2 19 -22 37 -37 40 -33 4 3 20 2 36 -2 40 -12 43 1 13 46 -22 32
-24 39 -12 48 45 33 46 102 3 145 -23 24 -34 26 -119 29 -52 2 -96 0 -98 -5z
m153 -85 c12 -22 6 -34 -20 -41 -31 -8 -46 10 -42 50 2 19 51 11 62 -9z"/>
<path d="M5155 3458 c-2 -7 -3 -67 -2 -133 l2 -120 37 -6 c40 -6 60 5 51 27
-3 8 -2 26 2 41 l6 26 43 -47 c40 -45 44 -47 89 -44 l48 3 -33 45 c-18 25 -41
54 -50 64 -27 29 -22 47 27 96 25 25 45 48 45 52 0 5 -19 8 -42 8 -37 0 -48
-6 -90 -47 l-47 -46 2 46 2 47 -43 0 c-25 0 -44 -5 -47 -12z"/>
<path d="M5889 3448 c0 -13 -1 -72 -1 -133 l-1 -110 45 -3 c38 -3 45 0 45 15
0 71 -1 70 56 69 l52 -1 3 36 3 37 -53 -2 c-48 -1 -53 1 -56 22 -3 21 0 22 61
22 l64 0 0 35 0 35 -109 0 c-105 0 -108 -1 -109 -22z"/>
<path d="M6580 3444 c-6 -14 -21 -48 -34 -77 -54 -119 -66 -148 -66 -156 0 -5
20 -9 44 -9 38 -1 45 2 50 23 6 21 11 24 60 23 48 -1 55 -4 61 -25 5 -21 22
-29 50 -23 5 1 18 2 27 3 24 2 24 3 -18 99 -81 184 -69 168 -119 168 -40 0
-47 -3 -55 -26z m70 -109 c0 -18 -5 -23 -20 -22 -24 2 -23 -1 -9 31 14 30 29
25 29 -9z"/>
<path d="M6778 3435 c-4 -33 -3 -34 37 -37 l40 -3 2 -90 c1 -49 2 -93 2 -98 1
-4 21 -6 46 -5 l45 1 -1 66 c-3 135 -4 131 39 131 37 0 39 1 39 35 l0 35 -123
0 -122 0 -4 -35z"/>
<path d="M7050 3335 l0 -135 44 0 c53 0 52 -3 48 158 l-3 112 -45 0 -44 0 0
-135z"/>
<path d="M7438 3463 c-2 -5 -4 -64 -3 -133 l0 -125 45 0 c43 0 45 1 45 30 1
46 11 55 60 51 29 -2 49 2 56 10 7 9 8 14 1 14 -5 0 -8 9 -5 20 4 14 0 20 -13
21 -11 1 -32 3 -49 4 -16 1 -35 3 -40 4 -6 0 -11 10 -11 21 0 18 7 20 66 20
71 0 68 -3 61 63 -1 4 -48 7 -105 7 -58 0 -106 -3 -108 -7z"/>
<path d="M7712 3357 c-72 -165 -71 -157 -25 -157 43 0 57 7 66 32 5 13 17 17
52 16 37 0 49 -5 62 -25 10 -15 24 -23 37 -21 12 1 26 -1 31 -4 22 -14 32 6
19 37 -8 17 -33 75 -56 130 l-43 100 -46 3 -46 3 -51 -114z m112 -22 c5 -17 2
-21 -18 -21 -22 0 -23 2 -14 29 11 30 21 27 32 -8z"/>
<path d="M8243 3435 c1 -37 4 -38 51 -35 22 1 27 -2 23 -13 -3 -8 -3 -18 0
-21 3 -3 6 -38 6 -78 0 -40 1 -78 4 -83 2 -6 21 -9 43 -7 35 4 40 7 41 31 0
14 2 58 2 96 l2 70 38 3 c35 3 37 5 37 38 l0 34 -124 0 -124 0 1 -35z"/>
<path d="M8514 3338 l1 -133 39 -3 c21 -2 42 1 45 7 4 5 6 65 6 133 l0 123
-46 3 -46 3 1 -133z"/>
<path d="M8977 3463 c-2 -5 -3 -64 -3 -133 l1 -125 45 0 45 0 -2 59 -3 59 26
-29 c14 -16 36 -43 50 -60 19 -24 32 -31 64 -32 l40 -2 1 60 c0 33 0 93 1 133
l0 72 -46 3 -46 3 0 -58 0 -58 -53 58 c-43 47 -58 58 -84 57 -17 0 -34 -3 -36
-7z"/>
<path d="M3755 3050 c-22 -16 -44 -33 -50 -38 -5 -4 -55 -42 -110 -84 -132
-100 -155 -122 -147 -135 19 -30 463 -224 702 -307 163 -57 523 -156 566 -156
27 0 33 6 52 48 27 60 35 99 22 107 -7 5 -195 60 -270 80 -150 39 -406 142
-673 270 -151 72 -151 72 -107 135 40 58 70 110 63 110 -5 0 -26 -14 -48 -30z"/>
<path d="M7049 2916 c-163 -159 -260 -228 -445 -317 -121 -58 -115 -59 -203
22 -88 80 -89 71 -8 -106 27 -60 55 -116 63 -124 11 -12 24 -10 91 14 83 29
245 108 303 147 19 12 46 29 60 36 128 66 440 367 440 424 0 11 -18 14 -94 14
l-94 0 -113 -110z"/>
<path d="M4892 2528 c-67 -207 -68 -215 -43 -223 33 -10 114 -23 246 -40 28
-3 68 -8 90 -11 151 -19 617 -19 730 0 17 3 50 7 75 10 25 3 56 8 70 11 14 3
36 7 50 10 53 10 72 14 88 19 9 3 31 8 47 10 17 3 51 12 78 20 26 8 47 11 47
8 0 -4 4 -1 9 6 9 15 -24 88 -53 121 -17 18 -19 18 -89 0 -104 -27 -188 -42
-307 -55 -30 -3 -73 -8 -95 -11 -56 -7 -435 -10 -435 -3 0 3 -17 5 -38 6 -74
1 -211 15 -322 34 -76 13 -78 15 -79 90 -1 70 -8 140 -14 146 -3 3 -28 -63
-55 -148z"/>
</g>
</svg>
